<?xml version="1.0" encoding="UTF-8"?>
<svg width="335px" height="81px" viewBox="0 0 335 81" version="1.1" xmlns="http://www.w3.org/2000/svg" xmlns:xlink="http://www.w3.org/1999/xlink">
    <!-- Generator: Sketch 49.3 (51167) - http://www.bohemiancoding.com/sketch -->
    <title>Group</title>
    <desc>Created with Sketch.</desc>
    <defs></defs>
    <g id="Page-1" stroke="none" stroke-width="1" fill="none" fill-rule="evenodd">
        <g id="Group" fill-rule="nonzero">
            <rect id="Rectangle-path" fill="#C90023" x="0" y="0.84" width="334.49" height="79.37"></rect>
            <polygon id="Shape" fill="#FFFFFF" points="53.89 26.53 47.97 54.53 43.73 54.53 39.73 36.65 39.61 36.65 35.73 54.53 31.41 54.53 25.41 26.53 31.29 26.53 34.29 43.33 34.37 43.33 37.85 26.53 41.85 26.53 45.37 43.33 45.37 43.33 48.05 26.53"></polygon>
            <path d="M71.85,42.09 C71.85,52.21 69.25,55.01 63.01,55.01 C57.29,55.01 54.17,53.01 54.17,42.41 L54.17,38.33 C54.17,29.33 57.37,26.05 63.01,26.05 C69.37,26.05 71.85,29.69 71.85,38.45 L71.85,42.09 Z M66.01,42.69 L66.01,38.09 C66.01,33.97 65.73,30.81 63.01,30.81 C60.13,30.81 60.01,34.21 60.01,38.09 L60.01,42.57 C60.01,46.57 59.85,50.09 63.01,50.09 C66.17,50.09 66.01,46.37 66.01,42.69 Z" id="Shape" fill="#FFFFFF"></path>
            <path d="M84.77,54.53 L81.77,44.61 L79.89,44.61 L79.89,54.53 L74.17,54.53 L74.17,26.5299756 L81.33,26.53 C83.89,26.53 90.17,26.45 90.17,35.45 C90.17,38.85 88.97,41.61 86.81,43.17 L90.97,54.53 L84.77,54.53 Z M79.85,31.01 L79.85,40.13 L80.85,40.13 C83.65,40.13 84.41,38.97 84.41,35.61 C84.41,32.73 83.85,31.01 81.41,31.01 L79.85,31.01 Z" id="Shape" fill="#FFFFFF"></path>
            <polygon id="Shape" fill="#FFFFFF" points="98.13 26.53 98.13 49.21 103.53 49.21 103.53 54.53 92.41 54.53 92.41 26.53"></polygon>
            <path d="M105.49,54.53 L105.49,26.53 L111.13,26.53 C117.25,26.53 122.13,28.33 122.13,40.53 C122.13,49.85 119.85,54.53 111.25,54.53 L105.49,54.53 Z M111.77,31.53 L111.21,31.53 L111.21,49.73 L111.97,49.73 C115.97,49.73 116.29,46.41 116.29,40.53 C116.29,35.21 116.09,31.49 111.77,31.49 L111.77,31.53 Z" id="Shape" fill="#FFFFFF"></path>
            <path d="M137.01,45.49 L137.01,54.49 L131.29,54.49 L131.29,26.49 L138.45,26.49 C141.05,26.49 147.29,26.93 147.29,35.81 C147.29,42.09 144.37,45.45 139.29,45.45 L137.01,45.49 Z M137.01,31.01 L137.01,40.96 L138.01,40.96 C140.81,40.96 141.49,39.6 141.49,35.88 C141.49,32.88 140.93,31.04 138.49,31.04 L137.01,31.01 Z" id="Shape" fill="#FFFFFF"></path>
            <path d="M159.53,54.53 L156.53,44.61 L154.61,44.61 L154.61,54.53 L148.89,54.53 L148.89,26.5299756 L156.05,26.53 C158.61,26.53 164.88,26.45 164.88,35.45 C164.88,38.85 163.69,41.61 161.53,43.17 L165.68,54.53 L159.53,54.53 Z M154.61,31.01 L154.61,40.13 L155.61,40.13 C158.41,40.13 159.17,38.97 159.17,35.61 C159.17,32.73 158.61,31.01 156.17,31.01 L154.61,31.01 Z" id="Shape" fill="#FFFFFF"></path>
            <polygon id="Shape" fill="#FFFFFF" points="179.81 26.53 179.81 31.81 172.89 31.81 172.89 37.65 178.81 37.65 178.81 42.96 172.89 42.96 172.89 49.24 179.81 49.24 179.81 54.56 167.17 54.56 167.17 26.56"></polygon>
            <path d="M194.76,32.17 C193.365546,31.3602037 191.771706,30.9582789 190.16,31.01 C187.89,31.01 186.93,31.93 186.93,34.01 C186.93,36.41 188.09,37.37 190.13,38.13 C192.69,39.13 195.65,40.85 195.65,46.25 C195.65,51.65 192.65,55.01 186.57,55.01 C184.866269,55.0344109 183.172221,54.7498109 181.57,54.17 L181.57,48.29 C183.077599,49.0785237 184.748851,49.5031861 186.45,49.53 C188.61,49.53 189.97,48.85 189.97,46.61 C189.97,43.93 188.33,43.05 186.09,42.09 C183.61,41.09 181.09,39.09 181.09,34.25 C181.09,29.41 183.89,26.05 189.09,26.05 C191.01,26.05 193.2,26.13 194.72,26.93 L194.76,32.17 Z" id="Shape" fill="#FFFFFF"></path>
            <path d="M210.2,32.17 C208.804532,31.3626986 207.211416,30.9609565 205.6,31.01 C203.32,31.01 202.37,31.93 202.37,34.01 C202.37,36.41 203.53,37.37 205.57,38.13 C208.12,39.13 211.08,40.85 211.08,46.25 C211.08,51.65 208.08,55.01 202.01,55.01 C200.306269,55.0344109 198.612221,54.7498109 197.01,54.17 L197.01,48.29 C198.517599,49.0785237 200.188851,49.5031861 201.89,49.53 C204.05,49.53 205.4,48.85 205.4,46.61 C205.4,43.93 203.77,43.05 201.53,42.09 C199.05,41.09 196.53,39.09 196.53,34.25 C196.53,29.41 199.33,26.05 204.53,26.05 C206.45,26.05 208.64,26.13 210.16,26.93 L210.2,32.17 Z" id="Shape" fill="#FFFFFF"></path>
            <path d="M225.61,45.49 L225.61,54.49 L219.9,54.49 L219.9,26.49 L227.05,26.49 C229.65,26.49 235.89,26.93 235.89,35.81 C235.89,42.09 232.97,45.45 227.89,45.45 L225.61,45.49 Z M225.61,31.01 L225.61,40.96 L226.61,40.96 C229.41,40.96 230.09,39.6 230.09,35.88 C230.09,32.88 229.53,31.04 227.09,31.04 L225.61,31.01 Z" id="Shape" fill="#FFFFFF"></path>
            <polygon id="Shape" fill="#FFFFFF" points="243.24 26.53 243.24 37.65 248.61 37.65 248.61 26.53 254.33 26.53 254.33 54.53 248.61 54.53 248.61 42.41 243.21 42.41 243.21 54.53 237.5 54.53 237.5 26.53"></polygon>
            <path d="M274.32,42.09 C274.32,52.21 271.72,55.01 265.48,55.01 C259.76,55.01 256.65,53.01 256.65,42.41 L256.65,38.33 C256.65,29.33 259.84,26.05 265.48,26.05 C271.84,26.05 274.32,29.69 274.32,38.45 L274.32,42.09 Z M268.48,42.69 L268.48,38.09 C268.48,33.97 268.2,30.81 265.48,30.81 C262.6,30.81 262.48,34.21 262.48,38.09 L262.48,42.57 C262.48,46.57 262.32,50.09 265.48,50.09 C268.64,50.09 268.48,46.37 268.48,42.69 Z" id="Shape" fill="#FFFFFF"></path>
            <polygon id="Shape" fill="#FFFFFF" points="289.44 26.53 289.44 31.81 285.12 31.81 285.12 54.53 279.4 54.53 279.4 31.81 275.04 31.81 275.04 26.53"></polygon>
            <path d="M307.84,42.09 C307.84,52.21 305.24,55.01 299,55.01 C293.28,55.01 290.16,53.01 290.16,42.41 L290.16,38.33 C290.16,29.33 293.36,26.05 299,26.05 C305.36,26.05 307.84,29.69 307.84,38.45 L307.84,42.09 Z M302,42.69 L302,38.09 C302,33.97 301.72,30.81 299,30.81 C296.12,30.81 296,34.21 296,38.09 L296,42.57 C296,46.57 295.84,50.09 299,50.09 C302.16,50.09 302,46.37 302,42.69 Z" id="Shape" fill="#FFFFFF"></path>
        </g>
    </g>
</svg>